HIERARCHY
ROOT Hips
{
  OFFSET 5.84602e-005 68.8428 3.50346
  CHANNELS 6 Xposition Yposition Zposition Zrotation Xrotation Yrotation
  JOINT Spine
  {
    OFFSET 0 8.597 -4.6522
    CHANNELS 3 Zrotation Xrotation Yrotation
    JOINT Spine1
    {
      OFFSET 0 7.8454 0.4098
      CHANNELS 3 Zrotation Xrotation Yrotation
      JOINT Spine2
      {
        OFFSET 0 9.7078 -2.1609
        CHANNELS 3 Zrotation Xrotation Yrotation
        JOINT Neck
        {
          OFFSET 0 21.8761 -0.4549
          CHANNELS 3 Zrotation Xrotation Yrotation
          JOINT Head
          {
            OFFSET 0 12.3537 3.3602
            CHANNELS 3 Zrotation Xrotation Yrotation
            End Site
            {
              OFFSET 0.0001 18.9506 0.5657
            }
          }
        }
        JOINT LeftShoulder
        {
          OFFSET 2.2086 21.1115 7.2329
          CHANNELS 3 Zrotation Xrotation Yrotation
          JOINT LeftArm
          {
            OFFSET 13.1193 3.0282 -4.8998
            CHANNELS 3 Zrotation Xrotation Yrotation
            JOINT LeftForeArm
            {
              OFFSET 27.4081 -0.0973053 -0.2375
              CHANNELS 3 Zrotation Xrotation Yrotation
              JOINT LeftHand
              {
                OFFSET 22.8641 0.0662994 -0.1369
                CHANNELS 3 Zrotation Xrotation Yrotation
                JOINT LeftHandIndex1
                {
                  OFFSET 8.8614 0.775009 2.4612
                  CHANNELS 3 Zrotation Xrotation Yrotation
                  JOINT LeftHandIndex2
                  {
                    OFFSET 3.3146 -0.808304 0.5841
                    CHANNELS 3 Zrotation Xrotation Yrotation
                    JOINT LeftHandIndex3
                    {
                      OFFSET 2.2628 -0.552002 0.3989
                      CHANNELS 3 Zrotation Xrotation Yrotation
                      End Site
                      {
                        OFFSET 1.6102 -0.4807 0.2612
                      }
                    }
                  }
                }
                JOINT LeftHandMiddle1
                {
                  OFFSET 8.9937 0.895004 0.2143
                  CHANNELS 3 Zrotation Xrotation Yrotation
                  JOINT LeftHandMiddle2
                  {
                    OFFSET 4.0984 0.0113983 -0.0242
                    CHANNELS 3 Zrotation Xrotation Yrotation
                    JOINT LeftHandMiddle3
                    {
                      OFFSET 2.2716 0.00689697 -0.0138001
                      CHANNELS 3 Zrotation Xrotation Yrotation
                      End Site
                      {
                        OFFSET 2.0404 -0.1441 0.0027
                      }
                    }
                  }
                }
                JOINT LeftHandRing1
                {
                  OFFSET 8.5234 0.597198 -2.0164
                  CHANNELS 3 Zrotation Xrotation Yrotation
                  JOINT LeftHandRing2
                  {
                    OFFSET 3.7188 -0.188293 -0.2328
                    CHANNELS 3 Zrotation Xrotation Yrotation
                    JOINT LeftHandRing3
                    {
                      OFFSET 2.1191 -0.106598 -0.1332
                      CHANNELS 3 Zrotation Xrotation Yrotation
                      End Site
                      {
                        OFFSET 1.8737 -0.2304 -0.0886
                      }
                    }
                  }
                }
                JOINT LeftHandPinky1
                {
                  OFFSET 7.9094 -0.601089 -3.4825
                  CHANNELS 3 Zrotation Xrotation Yrotation
                  JOINT LeftHandPinky2
                  {
                    OFFSET 2.2874 -0.477005 -0.6314
                    CHANNELS 3 Zrotation Xrotation Yrotation
                    JOINT LeftHandPinky3
                    {
                      OFFSET 1.6774 -0.349396 -0.4633
                      CHANNELS 3 Zrotation Xrotation Yrotation
                      End Site
                      {
                        OFFSET 1.4888 -0.4091 -0.3416
                      }
                    }
                  }
                }
                JOINT LeftHandThumb1
                {
                  OFFSET 1.833 -1.3875 1.3896
                  CHANNELS 3 Zrotation Xrotation Yrotation
                  JOINT LeftHandThumb2
                  {
                    OFFSET 3.4129 -1.121 2.5732
                    CHANNELS 3 Zrotation Xrotation Yrotation
                    JOINT LeftHandThumb3
                    {
                      OFFSET 2.2474 -0.804199 1.6192
                      CHANNELS 3 Zrotation Xrotation Yrotation
                      End Site
                      {
                        OFFSET 1.6527 -0.5689 1.1317
                      }
                    }
                  }
                }
              }
            }
          }
        }
        JOINT RightShoulder
        {
          OFFSET -2.2086 21.1115 7.2329
          CHANNELS 3 Zrotation Xrotation Yrotation
          JOINT RightArm
          {
            OFFSET -13.1216 3.0287 -4.9007
            CHANNELS 3 Zrotation Xrotation Yrotation
            JOINT RightForeArm
            {
              OFFSET -27.4081 -0.0973053 -0.2375
              CHANNELS 3 Zrotation Xrotation Yrotation
              JOINT RightHand
              {
                OFFSET -22.8641 0.0664063 -0.1369
                CHANNELS 3 Zrotation Xrotation Yrotation
                JOINT RightHandIndex1
                {
                  OFFSET -8.8614 0.774994 2.4612
                  CHANNELS 3 Zrotation Xrotation Yrotation
                  JOINT RightHandIndex2
                  {
                    OFFSET -3.3146 -0.808304 0.5841
                    CHANNELS 3 Zrotation Xrotation Yrotation
                    JOINT RightHandIndex3
                    {
                      OFFSET -2.2628 -0.552002 0.3989
                      CHANNELS 3 Zrotation Xrotation Yrotation
                      End Site
                      {
                        OFFSET -1.6102 -0.4807 0.2612
                      }
                    }
                  }
                }
                JOINT RightHandMiddle1
                {
                  OFFSET -8.9937 0.894989 0.2143
                  CHANNELS 3 Zrotation Xrotation Yrotation
                  JOINT RightHandMiddle2
                  {
                    OFFSET -4.0984 0.0113983 -0.0242
                    CHANNELS 3 Zrotation Xrotation Yrotation
                    JOINT RightHandMiddle3
                    {
                      OFFSET -2.2716 0.00691223 -0.0138001
                      CHANNELS 3 Zrotation Xrotation Yrotation
                      End Site
                      {
                        OFFSET -2.0404 -0.1441 0.0027
                      }
                    }
                  }
                }
                JOINT RightHandRing1
                {
                  OFFSET -8.5234 0.597198 -2.0164
                  CHANNELS 3 Zrotation Xrotation Yrotation
                  JOINT RightHandRing2
                  {
                    OFFSET -3.7188 -0.188309 -0.2328
                    CHANNELS 3 Zrotation Xrotation Yrotation
                    JOINT RightHandRing3
                    {
                      OFFSET -2.1191 -0.106598 -0.1332
                      CHANNELS 3 Zrotation Xrotation Yrotation
                      End Site
                      {
                        OFFSET -1.8737 -0.2304 -0.0886
                      }
                    }
                  }
                }
                JOINT RightHandPinky1
                {
                  OFFSET -7.9094 -0.601105 -3.4825
                  CHANNELS 3 Zrotation Xrotation Yrotation
                  JOINT RightHandPinky2
                  {
                    OFFSET -2.2874 -0.477005 -0.6314
                    CHANNELS 3 Zrotation Xrotation Yrotation
                    JOINT RightHandPinky3
                    {
                      OFFSET -1.6774 -0.349396 -0.4633
                      CHANNELS 3 Zrotation Xrotation Yrotation
                      End Site
                      {
                        OFFSET -1.4888 -0.4091 -0.3416
                      }
                    }
                  }
                }
                JOINT RightHandThumb1
                {
                  OFFSET -1.833 -1.38751 1.3896
                  CHANNELS 3 Zrotation Xrotation Yrotation
                  JOINT RightHandThumb2
                  {
                    OFFSET -3.41299 -1.12099 2.5732
                    CHANNELS 3 Zrotation Xrotation Yrotation
                    JOINT RightHandThumb3
                    {
                      OFFSET -2.24741 -0.804108 1.6192
                      CHANNELS 3 Zrotation Xrotation Yrotation
                      End Site
                      {
                        OFFSET -1.6527 -0.5689 1.1317
                      }
                    }
                  }
                }
              }
            }
          }
        }
      }
    }
  }
  JOINT RightUpLeg
  {
    OFFSET -9.1966 3.8861 -0.7581
    CHANNELS 3 Zrotation Xrotation Yrotation
    JOINT RightLeg
    {
      OFFSET -0.7359 -41.0265 0
      CHANNELS 3 Zrotation Xrotation Yrotation
      JOINT RightFoot
      {
        OFFSET 0 -40.2855 0
        CHANNELS 3 Zrotation Xrotation Yrotation
        JOINT RightToeBase
        {
          OFFSET 0 -5.6122 11.7359
          CHANNELS 3 Zrotation Xrotation Yrotation
          End Site
          {
            OFFSET 0 0 7.8731
          }
        }
      }
    }
  }
  JOINT LeftUpLeg
  {
    OFFSET 9.1965 3.8864 -0.7581
    CHANNELS 3 Zrotation Xrotation Yrotation
    JOINT LeftLeg
    {
      OFFSET 0.7359 -41.0268 0
      CHANNELS 3 Zrotation Xrotation Yrotation
      JOINT LeftFoot
      {
        OFFSET 0 -40.2855 0
        CHANNELS 3 Zrotation Xrotation Yrotation
        JOINT LeftToeBase
        {
          OFFSET 0 -5.6122 11.7359
          CHANNELS 3 Zrotation Xrotation Yrotation
          End Site
          {
            OFFSET 0 0 7.8731
          }
        }
      }
    }
  }
}
MOTION
Frames:	4
Frame Time:	0.0333333
5.84602e-005 68.8428 3.50346 0 0 -0 0 0 -0 0 0 -0 0 0 -0 0 0 -0 0 0 -0 0 0 -0 0 0 -0 0 0 -0 0 0 -0 0 0 -0 0 0 -0 0 0 -0 0 0 -0 -0.0146107 -8.87603e-005 -2.63497e-007 2.99804e-018 -2.42657e-020 -1.42182e-022 0 0 -0 -0.0187562 -0.001176 5.858e-005 5.06224e-018 3.88251e-019 1.21329e-020 0 0 -0 -0.012269 -0.00324817 0.000675346 -1.74678e-018 3.88251e-019 -0 0 0 -0 0 0 -0 0 0 -0 0 0 -0 0 0 -0 0 0 -0 0 0 -0 0 0 -0 0 0 -0 0 0 -0 0 0 -0 0.0149955 -9.10982e-005 2.64101e-007 -9.69331e-018 1.21329e-020 -4.7394e-023 0 0 -0 0.0189956 -0.00119102 -5.96516e-005 -5.41541e-019 0 2.42657e-020 0 0 -0 0.0122698 -0.00324857 -0.000673756 -2.00796e-019 0 -1.94126e-019 0 0 -0 0 0 -0 0 0 -0 3.39842 1.33031 -0.0637918 -5.65207e-008 0.834868 -0.000436188 -3.39935 -2.16518 -0.0642563 -8.89002e-024 -1.18485e-023 -1.48106e-024 -3.39844 1.35642 0.0640283 -3.18788e-007 0.782166 -0.000588827 3.39931 -2.13858 0.0634662 1.1399e-023 0 -0 
0.494995 1.01961 66.3441 -99.585 -89.9887 -99.5739 0.295215 4.03084 -0.142109 0.602727 8.06084 -0.306236 0.602727 8.06084 -0.306236 -2.54857e-006 -14.0112 -1.1258e-008 2.09628e-007 -17.0041 2.50679e-007 17.3817 -37.6076 -3.75438 -102.27 -38.5324 -62.6274 -6.61474 6.4396 -121.477 -24.0972 -18.5688 -12.6723 -6.36111e-015 1.59028e-015 3.18055e-015 -6.36111e-015 6.36111e-015 9.54166e-015 -9.54166e-015 1.59028e-015 9.54166e-015 -6.36111e-015 1.59028e-015 3.18055e-015 -0.0146259 -8.2278e-005 -1.85626e-006 -6.36111e-015 -4.77083e-015 -6.36111e-015 -6.36111e-015 1.59028e-015 3.18055e-015 -0.0187389 -0.00117396 6.07142e-005 -9.54166e-015 7.95139e-015 3.18055e-015 -6.36111e-015 1.59028e-015 3.18055e-015 -0.0122741 -0.00324487 0.00067801 -6.36111e-015 3.18055e-015 3.18055e-015 -6.36111e-015 1.59028e-015 3.18055e-015 -6.36111e-015 6.36111e-015 9.54166e-015 -9.54166e-015 1.59028e-015 9.54166e-015 -17.4143 -37.611 3.73545 91.6526 -40.8175 60.0953 8.04569 4.50919 106.519 35.2352 -14.0798 20.6463 -9.71218e-007 5.93881e-007 -1.20981e-006 9.54166e-015 -1.59028e-015 -1.59028e-015 -9.71218e-007 5.93881e-007 -1.20981e-006 -9.71218e-007 5.93881e-007 -1.20981e-006 0.0149879 -8.8735e-005 1.68665e-006 -9.71271e-007 5.93723e-007 -1.20989e-006 -9.71218e-007 5.93881e-007 -1.20981e-006 0.0189854 -0.00118559 -5.6653e-005 -9.71296e-007 5.93684e-007 -1.2099e-006 -9.71218e-007 5.93881e-007 -1.20981e-006 0.0122969 -0.00326098 -0.000679376 -9.71298e-007 5.93756e-007 -1.20984e-006 -9.71218e-007 5.93881e-007 -1.20981e-006 9.54166e-015 -1.59028e-015 -1.59028e-015 -9.71218e-007 5.93881e-007 -1.20981e-006 -13.3159 -33.7014 -11.5384 -71.4367 85.8881 69.0759 0.498049 32.3836 -5.53941 1.98785e-015 0 -3.18055e-015 13.3107 -33.7018 11.533 71.4416 85.8885 -69.0857 -0.500368 32.3831 5.53627 1.64025e-006 -1.24386e-007 -1.73023e-006 
0.494995 1.01961 66.2088 -99.585 -89.9887 -99.5739 0.295416 3.89836 -0.142774 0.602696 7.79593 -0.306816 0.602696 7.79592 -0.306816 -6.1552e-006 -13.2902 -6.75963e-008 7.54689e-008 -16.2831 2.55215e-007 16.9864 -36.8238 -4.16408 -101.775 -38.6224 -62.5448 -6.56473 6.49056 -121.92 -23.1913 -18.1643 -10.7567 -3.23225e-006 5.71538e-008 5.54854e-007 -4.10064e-006 -7.13211e-007 -6.27075e-007 -3.23225e-006 5.71538e-008 5.54854e-007 -3.23225e-006 5.71538e-008 5.54854e-007 -0.0146048 -8.83741e-005 -2.96229e-006 -1.50295e-006 -1.31141e-006 8.71402e-007 -3.23225e-006 5.71538e-008 5.54854e-007 -0.0187502 -0.00117326 5.64542e-005 -3.23256e-006 5.70446e-008 5.54897e-007 -3.23225e-006 5.71538e-008 5.54854e-007 -0.0122734 -0.00324599 0.000675694 -3.23244e-006 5.70581e-008 5.54963e-007 -3.23225e-006 5.71538e-008 5.54854e-007 -4.10064e-006 -7.13211e-007 -6.27075e-007 -3.23225e-006 5.71538e-008 5.54854e-007 -17.0197 -36.8262 4.13539 91.8353 -40.6516 60.2904 8.01945 4.55587 106.85 34.3499 -14.0826 18.7743 -9.7232e-007 5.90861e-007 -1.20261e-006 -9.7232e-007 5.90861e-007 -1.20261e-006 -1.94464e-006 1.18172e-006 -2.40521e-006 -9.7232e-007 5.90861e-007 -1.20261e-006 0.0149883 -9.41911e-005 -2.10232e-006 -1.94475e-006 1.18141e-006 -2.40536e-006 -9.7232e-007 5.90861e-007 -1.20261e-006 0.0190022 -0.00118669 -5.75438e-005 -1.9448e-006 1.18133e-006 -2.40539e-006 -9.7232e-007 5.90861e-007 -1.20261e-006 0.0122862 -0.0032501 -0.000678464 -1.9448e-006 1.18148e-006 -2.40528e-006 -9.7232e-007 5.90861e-007 -1.20261e-006 -9.7232e-007 5.90861e-007 -1.20261e-006 -1.94464e-006 1.18172e-006 -2.40521e-006 -13.3159 -33.7015 -11.5384 -71.4378 85.8881 69.077 0.498061 32.3836 -5.53941 -2.78299e-015 0 -0 13.3108 -33.7018 11.533 71.4418 85.8885 -69.086 -0.50036 32.383 5.53628 7.67165e-007 -2.13167e-007 -1.72265e-006 
0.494995 1.01961 66.0735 -99.6232 -89.9887 -99.6121 0.295587 3.76558 -0.143432 0.602605 7.53037 -0.307378 0.602606 7.53033 -0.307378 -1.46938e-006 -12.5689 2.35597e-007 -5.42132e-007 -15.5617 -1.51509e-007 16.6017 -36.037 -4.56335 -101.279 -38.7119 -62.4611 -6.51434 6.54113 -122.364 -22.2984 -17.7294 -8.84416 3.18055e-015 6.36111e-015 9.54166e-015 3.18055e-015 6.36111e-015 3.18055e-015 0 6.36111e-015 -0 3.18055e-015 6.36111e-015 9.54166e-015 -0.0145965 -8.84536e-005 -2.55398e-006 -9.54166e-015 4.77083e-015 -3.18055e-015 3.18055e-015 6.36111e-015 9.54166e-015 -0.0187702 -0.00116802 5.70332e-005 -3.18055e-015 0 -3.18055e-015 3.18055e-015 6.36111e-015 9.54166e-015 -0.0122649 -0.00325093 0.000674481 -6.36111e-015 0 6.36111e-015 3.18055e-015 6.36111e-015 9.54166e-015 3.18055e-015 6.36111e-015 3.18055e-015 0 6.36111e-015 -0 -16.6355 -36.0384 4.52499 92.0167 -40.4853 60.4843 7.99293 4.60241 107.181 33.4612 -14.0571 16.8944 -3.18055e-015 1.59028e-015 1.59028e-015 -3.18055e-015 -1.59028e-015 -1.59028e-015 3.18055e-015 -1.59028e-015 -3.18055e-015 -3.18055e-015 1.59028e-015 1.59028e-015 0.0149971 -9.35971e-005 2.38966e-006 6.36111e-015 1.59028e-015 4.77083e-015 -3.18055e-015 1.59028e-015 1.59028e-015 0.0190212 -0.00118842 -6.51782e-005 1.27222e-014 3.18055e-015 1.59028e-015 -3.18055e-015 1.59028e-015 1.59028e-015 0.0123061 -0.00325886 -0.000685453 -3.18055e-015 3.18055e-015 1.59028e-015 -3.18055e-015 1.59028e-015 1.59028e-015 -3.18055e-015 -1.59028e-015 -1.59028e-015 3.18055e-015 -1.59028e-015 -3.18055e-015 -13.3159 -33.7015 -11.5384 -71.437 85.8881 69.0763 0.498047 32.3836 -5.53941 1.98785e-015 -7.95139e-016 -3.18055e-015 13.3107 -33.7018 11.533 71.4413 85.8884 -69.0855 -0.500371 32.3831 5.53628 1.59028e-015 0 -6.36111e-015 
